<svg aria-hidden="true" style="position: absolute; width: 0; height: 0; overflow: hidden;" version="1.1" xmlns="http://www.w3.org/2000/svg" xmlns:xlink="http://www.w3.org/1999/xlink">
<defs>
<symbol id="logo" viewBox="0 0 33 32">
<path fill="#544cac" style="fill: var(--color1, #544cac)" d="M6.884 10.924l-5.526-1.344 5.412-4.341 0.114 5.686z"></path>
<path fill="#ff5c00" style="fill: var(--color2, #ff5c00)" d="M14.149 7.901l-6.045 4.848-0.188-9.452 6.233 4.604z"></path>
<path fill="#544cac" style="fill: var(--color1, #544cac)" d="M24.531 20.377l7.111 1.724-6.958 5.591-0.153-7.315z"></path>
<path fill="#544cac" style="fill: var(--color1, #544cac)" d="M6.22 16.037l17.113-13.825 0.63 26.832-17.743-13.006z"></path>
</symbol>
<symbol id="search" viewBox="0 0 32 32">
<path fill="#ff5c00" style="fill: var(--color1, #ff5c00)" d="M13.589 0c-4.351 0.002-8.439 2.087-10.995 5.609s-3.273 8.056-1.927 12.195c1.346 4.139 4.591 7.384 8.729 8.729s8.67 0.626 12.191-1.932l6.771 6.773c0.539 0.539 1.325 0.75 2.061 0.552s1.311-0.773 1.509-1.509c0.197-0.737-0.013-1.523-0.552-2.062l-6.771-6.773c1.978-2.719 2.877-6.075 2.525-9.419s-1.932-6.438-4.433-8.685c-2.501-2.247-5.746-3.486-9.107-3.479l-0.001 0zM13.589 22.933c-2.475 0-4.848-0.983-6.597-2.734s-2.733-4.124-2.733-6.599c0-2.475 0.983-4.849 2.733-6.599s4.123-2.733 6.597-2.733c2.475 0 4.848 0.983 6.597 2.733s2.733 4.124 2.733 6.599c-0.003 2.474-0.986 4.847-2.736 6.596s-4.121 2.734-6.594 2.737z"></path>
</symbol>
</defs>
</svg>
